# xmcd CD database file
#
# Track frame offsets:
#	150
#	19255
#	23232
#	41652
#	61227
#
# Disc length: 1098 seconds
#
# Revision: 1
# Processed by: cddbd v1.5.1PL2 Copyright (c) Steve Scherf et al.
# Submitted via: CDex 1.51
#
DISCID=39044805
DTITLE=Arrested Development - Natural (single)
DYEAR=1993
DGENRE=Hip-Hop
TTITLE0=Natural (The Natural Way)
TTITLE1=Time (Unplugged)
TTITLE2=Give A Man A Fish (Unplugged)
TTITLE3=Natural
TTITLE4=Fishin' 4 Religion (remix)
EXTD=YEAR: 1993
EXTT0=
EXTT1=
EXTT2=
EXTT3=
EXTT4=
PLAYORDER=
